<svg width="1600" height="900" viewBox="0 0 1600 900" fill="none" xmlns="http://www.w3.org/2000/svg">
  <defs>
    <linearGradient id="bg" x1="100" y1="100" x2="1500" y2="860" gradientUnits="userSpaceOnUse">
      <stop stop-color="#20150F"/>
      <stop offset="0.5" stop-color="#17110D"/>
      <stop offset="1" stop-color="#120D0A"/>
    </linearGradient>
    <linearGradient id="panel" x1="360" y1="240" x2="1220" y2="760" gradientUnits="userSpaceOnUse">
      <stop stop-color="#2D1F16"/>
      <stop offset="1" stop-color="#1B140F"/>
    </linearGradient>
    <linearGradient id="accent" x1="0" y1="0" x2="1" y2="1">
      <stop stop-color="#FFD68F"/>
      <stop offset="0.55" stop-color="#EA8B21"/>
      <stop offset="1" stop-color="#C66919"/>
    </linearGradient>
  </defs>
  <rect width="1600" height="900" fill="url(#bg)"/>
  <rect x="320" y="200" width="960" height="500" rx="34" fill="url(#panel)" stroke="#7E5930" stroke-opacity="0.36"/>
  <rect x="380" y="280" width="620" height="64" rx="16" fill="#3A281B"/>
  <rect x="380" y="378" width="510" height="42" rx="12" fill="#2A1D14"/>
  <rect x="380" y="438" width="460" height="42" rx="12" fill="#2A1D14"/>
  <rect x="380" y="498" width="410" height="42" rx="12" fill="#2A1D14"/>
  <rect x="1038" y="280" width="180" height="260" rx="22" fill="#22170F" stroke="#7E5930" stroke-opacity="0.32"/>
  <path d="M1128 324L1078 346V384C1078 429 1108 458 1128 466C1148 458 1178 429 1178 384V346L1128 324Z" fill="url(#accent)"/>
  <path d="M1108 375H1148" stroke="#1A120C" stroke-width="10" stroke-linecap="round"/>
  <rect x="1068" y="430" width="120" height="16" rx="8" fill="#EA8B21" fill-opacity="0.45"/>
  <rect x="1068" y="456" width="95" height="16" rx="8" fill="#EA8B21" fill-opacity="0.28"/>
  <circle cx="250" cy="150" r="90" fill="#EA8B21" fill-opacity="0.12"/>
  <circle cx="1390" cy="780" r="140" fill="#F7CC81" fill-opacity="0.1"/>
</svg>
